<?xml version="1.0" standalone="no"?><!DOCTYPE svg PUBLIC "-//W3C//DTD SVG 1.1//EN" "http://www.w3.org/Graphics/SVG/1.1/DTD/svg11.dtd"><svg width="128.375" height="128" viewBox="0 0 128.375 128" version="1.1" xmlns="http://www.w3.org/2000/svg" xmlns:xlink="http://www.w3.org/1999/xlink"><defs><style type="text/css"><![CDATA[
@font-face { font-family: ifont; src: url("//at.alicdn.com/t/font_1442373896_4754455.eot?#iefix") format("embedded-opentype"), url("//at.alicdn.com/t/font_1442373896_4754455.woff") format("woff"), url("//at.alicdn.com/t/font_1442373896_4754455.ttf") format("truetype"), url("//at.alicdn.com/t/font_1442373896_4754455.svg#ifont") format("svg"); }

]]></style></defs><g class="transform-group"><g transform="scale(0.125, 0.125)"><path d="M1009.021293 155.919932 902.790693 261.882403 761.15233 120.595046 867.380493 14.632576C886.936907-4.877525 918.64204-4.877525 938.200893 14.632576L1009.021293 85.275035C1028.577707 104.782699 1028.577707 136.409831 1009.021293 155.919932ZM265.126774 615.077637 406.787074 756.386932 217.9798 803.416903 265.126774 615.077637ZM867.380493 297.202414 442.460529 721.066921 300.822166 579.779564 725.74213 155.919932 867.380493 297.202414ZM100.621812 152.397681 100.621812 923.431814 872.050827 923.431814 872.050827 367.162361 972.672638 266.5893 972.672638 973.718345C972.672638 1001.489282 950.147295 1024 922.36417 1024L50.310906 1024C22.525343 1024 0 1001.489282 0 973.718345L0 102.111151C0 74.342651 22.525343 51.827058 50.310906 51.827058L760.645321 51.827058 660.025947 152.397681 100.621812 152.397681Z" fill="#000"></path></g></g></svg>