<?xml version="1.0" encoding="utf-8"?>
<!-- Generator: Adobe Illustrator 19.2.1, SVG Export Plug-In . SVG Version: 6.00 Build 0)  -->
<svg version="1.1" id="图层_1" xmlns="http://www.w3.org/2000/svg" xmlns:xlink="http://www.w3.org/1999/xlink" x="0px" y="0px"
	 viewBox="0 0 200 200" style="enable-background:new 0 0 200 200;" xml:space="preserve">
<g>
	<g transform="scale(0.1953125, 0.1953125)">
		<path d="M971.1,937H52.9C19.8,937,0,909.9,0,883.8l0-743.6C0,106.9,26.9,87,52.9,87h918.1c33.1,0,52.9,27,52.9,53.2v743.6
			C1024,917.1,997.1,937,971.1,937z M77.6,858.9h868.7V165.1H77.6V858.9z M332.1,413.7c-8.3,0-16.6-3.2-22.9-9.5l-84.1-84.6
			c-12.6-12.7-12.6-33.3,0-46c12.6-12.7,33.1-12.7,45.7,0l84.1,84.6c12.6,12.7,12.6,33.3,0,46C348.6,410.5,340.3,413.7,332.1,413.7z
			 M247.9,413.7c-8.3,0-16.6-3.2-22.9-9.5c-12.6-12.7-12.6-33.3,0-46l84.1-84.6c12.6-12.7,33.1-12.7,45.7,0
			c12.6,12.7,12.6,33.3,0,46l-84.1,84.6C264.5,410.5,256.2,413.7,247.9,413.7z M776,413.7c-8.3,0-16.6-3.2-22.9-9.5l-84.1-84.6
			c-12.6-12.7-12.6-33.3,0-46c12.6-12.7,33.1-12.7,45.7,0l84.1,84.6c12.6,12.7,12.6,33.3,0,46C792.6,410.6,784.3,413.7,776,413.7z
			 M692,413.7c-8.3,0-16.6-3.2-22.9-9.5c-12.6-12.7-12.6-33.3,0-46l84.1-84.6c12.6-12.7,33.1-12.7,45.7,0c12.6,12.7,12.6,33.3,0,46
			l-84.1,84.6C708.5,410.5,700.2,413.7,692,413.7z M796.6,732.6H227.4c-17.9,0-32.3-14.6-32.3-32.5c0-18,14.5-32.5,32.3-32.5h569.2
			c17.9,0,32.3,14.6,32.3,32.5C828.9,718,814.5,732.6,796.6,732.6z M556,732.6v61.3c0,0,0,44.1,64.7,44.1h69.6c0,0,64.7,0,64.7-44.1
			v-61.3H556z"/>
	</g>
</g>
</svg>
