<?xml version="1.0" standalone="no"?><!DOCTYPE svg PUBLIC "-//W3C//DTD SVG 1.1//EN" "http://www.w3.org/Graphics/SVG/1.1/DTD/svg11.dtd"><svg width="128" height="128" viewBox="0 0 128 128" version="1.1" xmlns="http://www.w3.org/2000/svg" xmlns:xlink="http://www.w3.org/1999/xlink"><defs><style type="text/css"><![CDATA[
@font-face { font-family: ifont; src: url("//at.alicdn.com/t/font_1442373896_4754455.eot?#iefix") format("embedded-opentype"), url("//at.alicdn.com/t/font_1442373896_4754455.woff") format("woff"), url("//at.alicdn.com/t/font_1442373896_4754455.ttf") format("truetype"), url("//at.alicdn.com/t/font_1442373896_4754455.svg#ifont") format("svg"); }

]]></style></defs><g class="transform-group"><g transform="scale(0.125, 0.125)"><path d="M561.1627 203.952088 561.1627 65.582671 318.264601 239.711524l242.898099 174.128853L561.1627 281.504372c138.073682 27.713178 242.122433 149.496849 242.122433 295.732421 0 166.692486-135.130653 301.824163-301.824163 301.824163-166.69351 0-301.824163-135.130653-301.824163-301.824163 0-55.017034 14.792914-106.547665 40.509622-150.965294l-58.143235-51.198056c-37.08871 58.483996-58.650795 127.785362-58.650795 202.163349 0 208.824049 169.285544 378.10857 378.10857 378.10857s378.10857-169.285544 378.10857-378.10857C879.570563 388.742768 741.600235 232.591359 561.1627 203.952088z" fill="#000000"></path></g></g></svg>